<svg width="17" height="17" viewBox="0 0 17 17" fill="none" xmlns="http://www.w3.org/2000/svg">
<path d="M2.10001 4.49999C2.10001 4.07565 2.26858 3.66868 2.56864 3.36862C2.86869 3.06856 3.27566 2.89999 3.70001 2.89999H9.30001C9.72435 2.89999 10.1313 3.06856 10.4314 3.36862C10.7314 3.66868 10.9 4.07565 10.9 4.49999V7.69999C10.9 8.12434 10.7314 8.53131 10.4314 8.83136C10.1313 9.13142 9.72435 9.29999 9.30001 9.29999H7.70001L5.30001 11.7V9.29999H3.70001C3.27566 9.29999 2.86869 9.13142 2.56864 8.83136C2.26858 8.53131 2.10001 8.12434 2.10001 7.69999V4.49999Z" fill="white"/>
<path d="M12.5 6.10001V7.70001C12.5 8.5487 12.1629 9.36263 11.5627 9.96275C10.9626 10.5629 10.1487 10.9 9.3 10.9H8.3624L6.9496 12.3136C7.1736 12.4328 7.4288 12.5 7.7 12.5H9.3L11.7 14.9V12.5H13.3C13.7243 12.5 14.1313 12.3314 14.4314 12.0314C14.7314 11.7313 14.9 11.3244 14.9 10.9V7.70001C14.9 7.27566 14.7314 6.86869 14.4314 6.56864C14.1313 6.26858 13.7243 6.10001 13.3 6.10001H12.5Z" fill="white"/>
</svg>
