<?xml version="1.0" standalone="no"?>
<!DOCTYPE svg PUBLIC "-//W3C//DTD SVG 20010904//EN"
 "http://www.w3.org/TR/2001/REC-SVG-20010904/DTD/svg10.dtd">
<svg version="1.0" xmlns="http://www.w3.org/2000/svg"
 width="300.000000pt" height="300.000000pt" viewBox="0 0 300.000000 300.000000"
 preserveAspectRatio="xMidYMid meet">
<metadata>
Created by potrace 1.10, written by Peter Selinger 2001-2011
</metadata>
<g transform="translate(0.000000,300.000000) scale(0.100000,-0.100000)"
fill="#000000" stroke="none">
<path d="M774 2531 c-57 -24 -73 -113 -29 -156 13 -14 29 -25 35 -25 6 0 10
-10 8 -22 -2 -18 -11 -23 -43 -25 -240 -20 -445 -250 -445 -500 0 -214 153
-413 358 -466 27 -6 49 -16 50 -22 1 -6 -31 -13 -73 -16 -96 -8 -157 -43 -193
-109 -20 -39 -23 -54 -19 -111 13 -161 162 -390 293 -452 27 -12 74 -42 104
-66 68 -54 122 -78 211 -93 128 -21 267 18 362 102 l45 40 451 0 451 0 32 29
32 28 0 197 1 197 113 2 114 2 29 33 29 32 0 206 0 206 -29 29 c-29 29 -30 29
-147 29 l-117 0 7 305 7 305 -142 145 -142 145 -513 0 -514 0 -32 -29 c-33
-29 -33 -30 -32 -120 1 -50 0 -91 -1 -91 -2 0 -19 7 -40 15 -20 9 -62 19 -93
23 -70 9 -76 26 -27 75 43 43 48 91 13 132 -25 28 -79 40 -114 26z m76 -71
c15 -28 -4 -60 -35 -60 -31 0 -50 32 -35 60 6 12 21 20 35 20 14 0 29 -8 35
-20z m1222 -146 c3 -135 3 -136 31 -160 26 -22 36 -24 138 -24 l109 0 0 -265
0 -265 -374 0 c-361 0 -374 -1 -399 -21 -15 -11 -31 -37 -36 -57 -15 -55 -11
-360 5 -400 17 -43 68 -64 143 -61 l56 3 3 -57 3 -57 -251 0 -250 0 0 -31 c0
-24 3 -30 16 -25 9 3 139 6 290 6 l274 0 0 23 c0 14 21 44 59 81 l59 58 198 0
199 -1 0 -193 0 -193 -614 -3 c-445 -1 -618 1 -627 9 -26 21 -17 113 15 172
40 71 81 196 81 248 0 56 -34 125 -76 152 -32 21 -34 26 -34 77 0 55 0 55 54
98 57 44 131 146 161 222 9 25 20 83 22 131 9 151 -37 262 -159 382 l-79 78 3
97 3 97 480 5 c264 3 483 6 487 8 3 1 8 -59 10 -134z m277 -128 c-2 -2 -51 0
-109 3 l-105 6 -5 105 c-3 58 -9 112 -14 120 -5 8 46 -40 114 -108 68 -67 121
-124 119 -126z m-1414 49 c32 -9 80 -27 107 -42 61 -34 158 -134 191 -200 120
-236 -15 -522 -285 -604 -97 -30 -224 -23 -322 16 -183 75 -295 272 -265 468
26 171 170 327 336 366 61 14 174 12 238 -4z m1694 -717 c4 -12 7 -102 7 -200
-1 -147 -4 -180 -16 -188 -9 -6 -160 -10 -360 -10 l-346 0 -50 -58 c-28 -32
-55 -68 -59 -81 -5 -18 -9 -20 -16 -10 -4 7 -4 18 0 24 5 5 11 36 15 68 l6 57
-98 0 c-63 0 -102 4 -110 12 -17 17 -17 379 0 396 9 9 137 12 515 12 l504 0 8
-22z m-1589 -188 l0 -31 -67 3 c-38 2 -67 7 -66 13 1 5 25 15 53 21 28 6 53
14 57 18 14 14 23 4 23 -24z m-182 -22 c-3 -8 -22 -13 -48 -13 -26 0 -45 5
-47 13 -3 8 10 12 47 12 37 0 50 -4 48 -12z m207 -84 c74 -36 96 -116 60 -223
-20 -61 -92 -131 -135 -131 -65 0 -132 85 -179 229 -23 71 -23 71 -60 71 -55
0 -109 18 -121 41 -6 11 -15 17 -21 14 -13 -8 6 -41 34 -59 12 -8 40 -17 61
-20 22 -4 45 -11 51 -16 7 -6 29 -50 49 -100 26 -63 50 -102 81 -134 58 -58
94 -66 146 -32 21 15 39 23 39 20 0 -4 -19 -32 -42 -63 -82 -109 -156 -161
-227 -161 -107 0 -272 199 -318 385 -15 61 -15 68 2 105 39 87 78 98 340 96
176 -2 205 -4 240 -22z m-20 -524 c1 -28 8 -47 23 -63 21 -21 31 -22 157 -22
123 0 132 -1 119 -16 -8 -9 -43 -30 -77 -45 -56 -26 -73 -29 -167 -29 -110 0
-120 3 -247 72 -34 19 -38 36 -10 41 12 2 15 -1 11 -12 -16 -41 83 12 145 78
19 20 37 36 40 36 4 0 6 -18 6 -40z"/>
<path d="M1822 2002 l-413 -2 3 -25 3 -26 415 0 415 0 3 22 c2 12 0 24 -5 28
-4 3 -194 5 -421 3z"/>
<path d="M1414 1871 c-2 -2 -4 -16 -4 -31 0 -25 3 -26 43 -24 39 2 42 4 42 29
0 25 -3 28 -38 29 -21 1 -41 -1 -43 -3z"/>
<path d="M1559 1873 c-1 -2 -1 -14 -2 -28 l-1 -26 234 0 234 0 0 26 0 26 -232
2 c-128 1 -232 1 -233 0z"/>
<path d="M2080 1845 l0 -30 82 2 83 1 3 29 3 28 -86 0 -85 0 0 -30z"/>
<path d="M1410 1718 l0 -28 195 0 c107 0 198 0 203 0 4 0 7 11 7 25 l0 24
-202 3 -203 3 0 -27z"/>
<path d="M1880 1718 l0 -28 186 0 185 0 -3 28 -3 27 -182 0 -183 0 0 -27z"/>
<path d="M1892 925 l3 -25 178 -3 177 -3 0 28 0 28 -181 0 -180 0 3 -25z"/>
<path d="M1250 795 l0 -30 355 3 355 2 0 28 0 27 -355 0 -355 0 0 -30z"/>
<path d="M2020 796 c0 -30 1 -31 42 -30 40 1 43 3 43 29 0 25 -3 27 -42 29
-42 2 -43 1 -43 -28z"/>
<path d="M2169 827 c0 -1 -2 -14 -4 -29 -3 -27 -2 -28 41 -28 42 0 44 1 44 29
0 27 -3 29 -40 29 -22 0 -40 0 -41 -1z"/>
<path d="M596 2166 c7 -19 26 -23 164 -36 146 -15 233 -33 301 -63 109 -48
150 -105 148 -206 -1 -50 -2 -52 -8 -21 -23 110 -121 205 -250 240 -23 6 -86
11 -139 11 -137 0 -253 -41 -319 -112 -68 -73 -89 -220 -45 -311 66 -136 256
-218 435 -189 141 23 246 95 298 206 16 33 29 55 29 48 0 -16 -40 -125 -51
-139 -5 -6 -16 -28 -24 -50 l-16 -39 26 30 c42 50 66 130 77 255 18 205 -17
261 -205 319 -58 18 -121 28 -389 66 -30 4 -36 2 -32 -9z m319 -107 c159 -29
255 -131 255 -268 -1 -102 -37 -166 -130 -227 -65 -42 -104 -55 -196 -61 -130
-9 -226 21 -309 98 -83 77 -105 174 -65 283 53 140 240 213 445 175z"/>
<path d="M570 1948 c-55 -29 -81 -64 -87 -119 -11 -105 115 -191 207 -141 53
29 80 75 80 136 0 43 -5 57 -30 84 -28 31 -84 62 -113 62 -7 0 -33 -10 -57
-22z m117 -38 c64 -38 66 -132 5 -180 -46 -37 -131 -20 -158 31 -25 50 -18 97
20 135 40 40 83 45 133 14z"/>
<path d="M587 1862 c-21 -23 -22 -66 -1 -86 23 -24 70 -20 88 6 21 30 20 54
-4 78 -25 25 -62 26 -83 2z"/>
<path d="M943 1955 c-15 -7 -43 -29 -61 -49 -60 -68 -37 -173 47 -216 49 -24
79 -25 126 -3 113 54 110 216 -4 264 -38 16 -76 17 -108 4z m123 -59 c28 -28
34 -41 34 -77 -1 -123 -163 -152 -210 -39 -29 70 29 150 109 150 24 0 42 -9
67 -34z"/>
<path d="M950 1860 c-41 -41 -13 -100 48 -100 33 0 62 29 62 62 0 26 -36 58
-65 58 -14 0 -34 -9 -45 -20z"/>
<path d="M1687 1452 c-10 -10 -17 -27 -17 -37 0 -10 7 -27 17 -37 15 -17 15
-19 0 -36 -37 -41 -7 -79 68 -86 28 -2 74 -5 103 -5 51 -1 52 -2 46 -26 -4
-18 -1 -32 11 -45 26 -28 173 -29 198 -2 19 21 22 48 7 57 -29 18 19 23 200
22 194 -1 201 -1 222 21 22 22 22 22 4 57 -18 33 -18 36 -3 53 22 25 21 34 -6
60 -23 22 -26 22 -429 22 -380 0 -406 -1 -421 -18z m843 -37 l0 -25 -414 0
c-279 0 -417 3 -421 10 -4 6 -4 17 -1 25 5 13 67 15 421 15 l415 0 0 -25z m0
-105 c0 -20 -5 -20 -417 -18 -389 3 -418 4 -421 21 -3 16 22 17 417 17 415 0
421 0 421 -20z m-425 -105 c0 -19 -6 -20 -88 -18 -49 1 -91 4 -94 7 -3 3 -3
12 1 21 5 13 21 15 93 13 80 -3 88 -5 88 -23z"/>
</g>
</svg>
