<svg width="20" height="20" viewBox="0 0 20 20" fill="none" xmlns="http://www.w3.org/2000/svg">
<g clip-path="url(#clip0_4_71)">
<path d="M9.99995 7.50004C8.15829 7.50004 7.49995 8.15837 7.49995 10C7.49995 11.8417 8.15821 12.5 9.99987 12.5C11.8415 12.5 12.5 11.8417 12.5 10C12.5 8.15837 11.8416 7.50004 9.99995 7.50004ZM17.4499 9.16671C17.0665 5.69171 14.3082 2.93337 10.8332 2.55004V0.833374H9.16654V2.55004C5.69154 2.93337 2.93321 5.69171 2.54987 9.16671H0.833206V10.8334H2.54987C2.93321 14.3084 5.69154 17.0667 9.16654 17.45V19.1667H10.8332V17.45C14.3082 17.0667 17.0665 14.3084 17.4499 10.8334H19.1665V9.16671H17.4499ZM9.99987 15.8334C6.77487 15.8334 4.16654 13.225 4.16654 10C4.16654 6.77504 6.77487 4.16671 9.99987 4.16671C13.2249 4.16671 15.8332 6.77504 15.8332 10C15.8332 13.225 13.2249 15.8334 9.99987 15.8334Z" fill="#E5E5E5"/>
</g>
<defs>
<clipPath id="clip0_4_71">
<rect width="20" height="20" fill="white"/>
</clipPath>
</defs>
</svg>
