<?xml version="1.0" encoding="UTF-8"?>
<svg id="Layer_2" data-name="Layer 2" xmlns="http://www.w3.org/2000/svg" viewBox="0 0 696.04 696.04">
  <defs>
    <style>
      .cls-1 {
        fill: #103b32;
      }

      .cls-1, .cls-2, .cls-3, .cls-4 {
        stroke-width: 0px;
      }
      
      .cls-4 {
        fill: #000;
      }

      .cls-2 {
        fill: #fff;
        opacity: .8;
      }

      .cls-3 {
        fill: #103b32;
      }
    </style>
  </defs>
  <g id="Layer_1-2" data-name="Layer 1">
    <g>
      <!-- <path class="cls-2" d="M0,0h696.04v696.04H0c0-232.01,0-464.02,0-696.04ZM375.22,115.81v.07c-22.09,0-44.19,0-66.28,0-15.39,0-30.79.05-46.18.07-2.83,0-5.62.45-8.19,1.57-4.93,2.14-8.8,5.61-11.58,10.24-.55.92-1.5,1.61-1.66,2.76-.36,2.59-1.11,5.11-1.1,7.78.04,8.24-.08,16.48-.1,24.72,0,1.53-.18,3.05.05,4.6.4,2.72-.7,3.56-3.31,2.44-4.83-2.07-9.79-3.71-14.84-5.13-6.98-1.96-14.01-3.6-21.28-3.94-4.12-.19-4.32-.43-4.4-4.67,0-.18.03-.37-.01-.54-.59-2.63.6-4.1,2.84-5.45,3.64-2.21,6.91-4.96,9.07-8.77,1.52-2.69,2.47-5.57,3.14-8.59,1.29-5.83.09-11.32-3.12-16.03-3.41-5-8.09-8.53-14.49-9.61-10.67-1.81-18.21,2.38-23.72,10.46-2.84,4.17-3.98,9.17-3.28,14.29.5,3.66,1.46,7.2,3.68,10.36,2.51,3.59,5.72,6.22,9.55,8.19,1.18.61,2.18,1.36,2.17,2.84,0,1.72.02,3.44-.1,5.16-.11,1.6-.77,2.11-2.5,2.19-1.17.05-2.35.03-3.52.11-5.33.37-10.54,1.4-15.77,2.49-4.81,1-9.43,2.55-13.98,4.25-6.86,2.57-13.45,5.73-19.7,9.64-5.69,3.56-11.1,7.45-16.18,11.81-5.34,4.59-10.18,9.68-14.76,15.06-4.48,5.26-8.12,11.03-11.59,16.95-3.68,6.27-6.31,13-8.5,19.9-1.17,3.7-2.28,7.44-3.17,11.22-1.41,6-2.1,12.11-2.4,18.27-.41,8.42-.39,16.82,1.18,25.15.25,1.33.36,2.67.65,4.01.76,3.55,1.91,6.98,2.8,10.48,1.18,4.67,2.86,9.18,4.83,13.52,3.7,8.16,8.15,15.88,13.76,22.95,5.6,7.06,12.01,13.22,18.93,18.92,4.9,4.04,10.25,7.37,15.8,10.45,3.48,1.93,7.01,3.76,10.68,5.27,7.88,3.23,16.04,5.59,24.34,7.49.35.08.72.11,1.06.22.84.3,1.39.85,1.34,1.81-.06,1.08-.73,1.6-1.72,1.76-.36.06-.72.07-1.08.06-5.27-.18-10.48.54-15.71.92-7.55.55-14.83,2.38-21.76,5.36-6.53,2.8-12.29,6.71-17,12.21-4.34,5.06-7.19,10.75-9.02,17.08-1.09,3.79-1.45,7.62-1.4,11.54.05,3.98-.15,7.99.69,11.91,1.11,5.2,2.26,10.38,4.09,15.43,1.94,5.34,3.91,10.65,6.24,15.84,3.62,8.09,7.59,16,12.52,23.34,9.61,14.31,20.38,27.64,34.41,37.98,6.75,4.98,14.14,8.69,22.24,10.88,1.28.35,2.32.9,3.23,1.84,2.45,2.53,4.94,5.02,7.57,7.37,4.46,3.97,9.1,7.74,14.3,10.7,7.31,4.16,14.98,7.47,23.11,9.81,7.45,2.14,15.05,3.26,22.72,3.67,8.22.44,16.46.22,24.6-1.35,5.49-1.06,10.94-2.28,16.27-3.97,2.65-.85,5.18-2.08,7.77-3.11,2.45-.97,4.81-2.08,7.12-3.28,10.19-5.3,19.27-12.11,26.96-20.67,1.26-1.4,2.55-1.97,4.43-2.02,7.97-.2,15.93-.21,23.9-.21,58.68,0,117.35,0,176.03.04,3.52,0,6.8-.64,9.97-2.18,4.29-2.1,7.59-5.31,9.7-9.48,1.84-3.63,2.67-7.61,2.63-11.8-.13-14.94-.11-29.88-.12-44.82,0-11.14.02-22.27.05-33.41,0-2.41.46-2.87,2.81-2.98,2.35-.11,4.71-.17,7.06-.18,11.23-.02,22.46,0,33.68-.02,2.17,0,4.35-.07,6.42-.88,4.1-1.61,7.57-4,10.53-7.36,3.91-4.45,5.83-9.55,5.85-15.34.08-26.26.03-52.52.12-78.77.02-4.83-1.43-9-4.38-12.76-4.96-6.32-11.38-9.57-19.45-9.57-13.13,0-26.26-.02-39.39-.07-3.25-.01-3.52-.35-3.51-3.63.02-6.97.04-13.94.06-20.92.15-37.48.3-74.97.45-112.45,0-2.12-.35-4.17-1.75-5.87-1.95-2.36-3.85-4.78-5.96-7-6.17-6.49-12.41-12.92-18.68-19.31-5.32-5.42-10.73-10.76-16.11-16.13-6.4-6.39-12.8-12.78-19.2-19.16-2.94-2.93-6.25-4.43-10.64-4.3-11.85.34-23.72.28-35.58.29-25.08.03-50.16,0-75.25,0Z"/> -->
      <path class="cls-4" d="M375.22,115.81c25.08,0,50.16.02,75.25,0,11.86-.01,23.73.05,35.58-.29,4.39-.13,7.7,1.37,10.64,4.3,6.4,6.38,12.8,12.77,19.2,19.16,5.38,5.37,10.79,10.7,16.11,16.13,6.28,6.39,12.51,12.82,18.68,19.31,2.11,2.22,4.01,4.63,5.96,7,1.39,1.69,1.76,3.74,1.75,5.87-.14,37.48-.3,74.97-.45,112.45-.03,6.97-.04,13.94-.06,20.92,0,3.28.25,3.61,3.51,3.63,13.13.05,26.26.08,39.39.07,8.07,0,14.49,3.25,19.45,9.57,2.95,3.76,4.4,7.93,4.38,12.76-.09,26.26-.04,52.52-.12,78.77-.02,5.79-1.94,10.9-5.85,15.34-2.95,3.36-6.43,5.75-10.53,7.36-2.07.81-4.24.88-6.42.88-11.23.01-22.46,0-33.68.02-2.35,0-4.71.07-7.06.18-2.36.11-2.81.57-2.81,2.98-.04,11.14-.06,22.27-.05,33.41,0,14.94-.01,29.88.12,44.82.04,4.19-.79,8.17-2.63,11.8-2.11,4.17-5.41,7.38-9.7,9.48-3.16,1.55-6.44,2.19-9.97,2.18-58.68-.04-117.35-.04-176.03-.04-7.97,0-15.94,0-23.9.21-1.88.05-3.17.62-4.43,2.02-7.7,8.56-16.77,15.37-26.96,20.67-2.31,1.2-4.68,2.31-7.12,3.28-2.59,1.02-5.12,2.26-7.77,3.11-5.32,1.7-10.77,2.92-16.27,3.97-8.15,1.57-16.39,1.79-24.6,1.35-7.67-.41-15.27-1.53-22.72-3.67-8.13-2.34-15.8-5.65-23.11-9.81-5.2-2.96-9.83-6.72-14.3-10.7-2.64-2.35-5.12-4.84-7.57-7.37-.91-.94-1.95-1.5-3.23-1.84-8.11-2.2-15.49-5.91-22.24-10.88-14.03-10.34-24.8-23.67-34.41-37.98-4.93-7.34-8.9-15.25-12.52-23.34-2.33-5.19-4.3-10.5-6.24-15.84-1.83-5.05-2.98-10.23-4.09-15.43-.84-3.91-.64-7.92-.69-11.91-.05-3.92.31-7.75,1.4-11.54,1.83-6.33,4.68-12.03,9.02-17.08,4.71-5.49,10.47-9.41,17-12.21,6.93-2.97,14.21-4.81,21.76-5.36,5.23-.38,10.45-1.1,15.71-.92.36.01.73,0,1.08-.06,1-.16,1.67-.68,1.72-1.76.05-.96-.5-1.51-1.34-1.81-.34-.12-.71-.14-1.06-.22-8.3-1.9-16.47-4.25-24.34-7.49-3.66-1.5-7.19-3.33-10.68-5.27-5.55-3.08-10.9-6.41-15.8-10.45-6.92-5.7-13.34-11.85-18.93-18.92-5.61-7.08-10.07-14.8-13.76-22.95-1.97-4.34-3.65-8.85-4.83-13.52-.89-3.5-2.04-6.93-2.8-10.48-.28-1.33-.4-2.68-.65-4.01-1.58-8.33-1.59-16.73-1.18-25.15.3-6.15.99-12.27,2.4-18.27.89-3.78,2-7.52,3.17-11.22,2.19-6.9,4.83-13.64,8.5-19.9,3.47-5.91,7.11-11.68,11.59-16.95,4.58-5.38,9.42-10.47,14.76-15.06,5.07-4.36,10.48-8.25,16.18-11.81,6.26-3.91,12.85-7.07,19.7-9.64,4.55-1.71,9.17-3.25,13.98-4.25,5.22-1.09,10.44-2.12,15.77-2.49,1.17-.08,2.35-.06,3.52-.11,1.73-.07,2.39-.59,2.5-2.19.12-1.71.1-3.44.1-5.16,0-1.48-.99-2.24-2.17-2.84-3.83-1.97-7.04-4.6-9.55-8.19-2.21-3.16-3.18-6.7-3.68-10.36-.7-5.12.44-10.11,3.28-14.29,5.5-8.08,13.04-12.27,23.72-10.46,6.4,1.08,11.08,4.61,14.49,9.61,3.21,4.71,4.41,10.2,3.12,16.03-.67,3.02-1.61,5.9-3.14,8.59-2.16,3.81-5.43,6.57-9.07,8.77-2.24,1.35-3.43,2.83-2.84,5.45.04.17,0,.36.01.54.08,4.24.28,4.48,4.4,4.67,7.28.34,14.31,1.99,21.28,3.94,5.05,1.42,10.01,3.06,14.84,5.13,2.61,1.12,3.71.28,3.31-2.44-.23-1.55-.05-3.07-.05-4.6.02-8.24.13-16.48.1-24.72-.01-2.67.74-5.19,1.1-7.78.16-1.15,1.11-1.84,1.66-2.76,2.78-4.63,6.65-8.1,11.58-10.24,2.57-1.12,5.36-1.56,8.19-1.57,15.39-.03,30.79-.06,46.18-.07,22.09-.01,44.19,0,66.28,0v-.07ZM258.78,419.93l-.06-.06c-.31-1.27-1.16-2.28-2.06-3.06-4.19-3.61-8.92-6.32-14.2-8.04-.44-.14-.88-.18-1.2.27-1.12,0-2.16-.29-3.16-.76-.21-.76-.58-.99-1.19-.33-1.96-.28-3.91-.56-5.87-.84-.3-.72-.67-.92-1.2-.19-.51-.09-1.02-.17-1.52-.26-.43-.96-1.01-1.03-1.73-.3-1.42-.05-2.85.04-4.23-.4-.72-.88-1.49-.85-2.29-.12-3.04-.04-6.09.04-9.12-.4-1.37-1.14-2.72-1.04-4.04.07-.33.07-.66.14-.99.22-1.21-.45-2.16-.16-2.79,1-.83.39-1.7.67-2.63.71-.52-.69-.89-.46-1.2.19-.33.1-.66.2-.98.31-.6-.64-.97-.42-1.18.33-.87.09-1.74.18-2.61.27-.68-.77-1.25-.65-1.75.2-3.54.46-7.08.34-10.63-.03-.71-.86-1.48-.88-2.29-.15-.53.04-1.04-.02-1.52-.27-.2-.74-.56-1-1.18-.36-2.45-.17-4.5-1.81-6.96-1.96-.32-.69-.7-.87-1.2-.16-1.09,0-2.18.01-3.27.02-2.84-.87-5.68-.6-8.53-.07-.06.01-.11.13-.16.21-2.53.09-5.06.18-7.59.27-1.41-.7-2.84-.48-4.14.18-1.48.75-3.03,1.1-4.62,1.45-3.33.74-6.65,1.45-9.84,2.84-4.03,1.75-7.76,3.85-10.85,6.99-3.1,3.15-5.94,6.44-7.21,10.87-.39,1.37-.73,2.77-1.19,4.13-1.43,4.19-1.41,8.49-.95,12.82.46,4.32,1.88,8.44,2.83,12.65.88,3.9,2.37,7.59,3.87,11.21,2.04,4.95,3.97,9.99,6.61,14.7,1.75,3.13,3.19,6.44,5.05,9.5,2.19,3.61,4.61,7.08,7.06,10.52,3.62,5.06,7.58,9.86,11.67,14.55,6.45,7.39,13.68,13.81,22.11,18.86,4.85,2.9,9.84,5.13,15.66,5.46,3.59.21,6.97-.14,10.38-1.1,1.68-.47,3.16-1.33,4.75-1.96,4.74-1.88,8.99-4.68,12.93-7.84,3.86-3.09,7.69-6.26,10.84-10.14.45-.55,1.08-.95,1.62-1.43.87-.78,1.85-1.48,2.58-2.39,3.63-4.47,7.32-8.9,10.73-13.54,3.2-4.35,6.42-8.7,9.12-13.4,1.53-2.67,3.15-5.35,4.02-8.28.76-2.58,2.03-4.75,3.58-6.84,1.62-2.18,3-4.49,3.9-7.08,2.04-5.89,4.01-11.8,5.4-17.89.21-.94.74-1.88-.04-2.81.04-.51.09-1.02.13-1.53.49-.18.68-.58.71-1.05.33-6.32.64-12.65-2.42-18.49-.93-1.77-1.54-3.82-3.29-5.09-.26-.31-.53-.62-.79-.92.13-.71-.06-1.2-.87-1.26ZM202.13,174.37c-.87-.09-1.74-.17-2.62-.26-.44-.86-.99-1.1-1.73-.32-5.62,0-11.24,0-16.86,0-1.36-.74-2.68-.85-3.9.3-2.14.25-4.24.86-6.41.84-.54-.71-.92-.52-1.2.22-.51.09-1.02.18-1.53.27-.77-.78-1.33-.61-1.72.37-.51.09-1.02.17-1.53.26-.51-.72-.89-.52-1.2.18-.96.22-1.93.45-2.89.67-.69-.43-1.19-.32-1.44.5l-.99.22c-.58-.67-.93-.39-1.19.29-.78.21-1.56.42-2.34.63-.76-.43-1.23-.23-1.42.63-1.5.58-3.13.77-4.54,1.6-1.64-.45-2.75.31-3.63,1.61-.43.16-.86.32-1.29.48-1.25-.39-2.12-.06-2.46,1.29-.07.14-.19.21-.34.21-1.21-.08-2.32.08-2.96,1.3-.1.14-.23.22-.39.24-.82-.26-1.48.21-1.96.67-2.82,2.68-6.2,4.61-9.28,6.94-4.52,3.41-8.78,7.15-12.82,11.13-4.77,4.69-8.9,9.9-12.79,15.34-3.53,4.94-6.22,10.32-8.96,15.68-.77,1.5-1.71,2.97-2.21,4.6-1.52,4.98-3.13,9.93-4.28,15.04-1.4,6.19-2.2,12.4-2.24,18.76-.07,9.23.4,18.38,2.94,27.3.91,3.2,1.57,6.48,2.85,9.59,1.41,3.42,2.87,6.79,4.42,10.15,1.68,3.64,3.82,6.97,5.81,10.39.92,1.58,1.85,3.29,3.17,4.63,3.05,3.09,5.62,6.58,8.49,9.83,3.32,3.77,7.29,6.69,11.05,9.88,2.48,2.1,4.94,4.37,8.03,5.7,3.56,1.54,6.65,3.94,10.21,5.55,2.72,1.23,5.63,2.03,8.21,3.51,3.18,1.84,6.75,2.33,10.17,3.29,2.99.84,5.97,1.97,9.18,1.79.17,0,.34.11.52.16,4.48,1.11,9.07,1.59,13.64,1.74,10.56.33,21.13.31,31.52-2.07,1.93-.44,3.79-1.24,5.74-1.54,2.71-.41,5.22-1.3,7.69-2.43,1.97-.9,3.95-1.82,6.02-2.43,1.94-.56,3.67-1.51,5.28-2.57,2.18-1.45,4.55-2.56,6.83-3.77,3.93-2.08,7.57-4.5,10.93-7.35,2.2-1.87,4.4-3.73,7.02-5.01.85-.42,1.94-.68,1.97-1.96,2.46-2.25,4.69-4.73,6.87-7.26,1.52-1.77,3.05-3.55,4.58-5.32,1.24-.3,1.48-1.23,1.47-2.32.71-.92,1.37-1.87,2-2.85,2.22-3.47,4.4-6.95,6.39-10.56,1.21-.46,1.57-1.31,1.17-2.52l1.66-3.43c.86-.24.93-.76.52-1.46.18-.42.37-.84.55-1.26,1.15-.74,1.33-1.83,1.12-3.06.36-1.15.71-2.3,1.07-3.45,1.07-.69,1.42-1.61.91-2.81.09-.33.18-.65.26-.98.82-.57,1.43-1.21.8-2.28.01-1.46.22-2.88.67-4.27.85-.17,1.03-.54.36-1.17l.37-1.51c.66-.29.9-.66.22-1.2.03-1.06.04-2.12.35-3.15.62-.32.9-.68.18-1.2-.05-.89-.01-1.76.24-2.62,1.03-.64,1.03-1.41.29-2.27v-9.79c.7-.88.78-1.66-.34-2.26-.05-.34-.1-.67-.15-1.01.73-.83.61-1.58-.19-2.29-.13-1.41-.27-2.82-.4-4.23.7-.52.49-.9-.19-1.2-.12-.5-.23-1.01-.35-1.51.67-.63.46-1-.36-1.17-.24-1.24-.49-2.48-.73-3.72.7-.53.53-.91-.2-1.2-.32-1.64-1.46-3.03-1.41-4.78.23-1.76-.18-2.98-1.47-4.43-.6-.99-1.07-2.03-1.24-3.18.65-.66.4-1.01-.4-1.16-1.35-1.47-1.53-3.52-2.55-5.16.3-.73.12-1.21-.71-1.37-2.83-5.69-6.28-11.01-10.07-16.1.18-.79-.12-1.21-.95-1.23-4.1-5.12-8.62-9.84-13.49-14.25-2.86-2.6-6.01-4.84-8.82-7.48.01-.87-.43-1.15-1.24-.95-.15-.02-.27-.09-.35-.23-.07-.82-.51-1.09-1.28-.86l-.97-.63c-.03-.41-.25-.57-.65-.45-3.73-2.11-7.46-4.22-11.19-6.32-.22-.82-.73-.95-1.43-.58-.25-.15-.51-.29-.76-.44-1.04-1.41-2.47-1.85-4.15-1.71-1.33-.53-2.66-1.06-3.99-1.59-.13-.8-.47-1.07-1.16-.46-1.35-.1-2.63-.37-3.71-1.25-.23-.76-.59-.98-1.19-.31-1.27-.09-2.49-.45-3.7-.81-.7-1.07-1.61-1.44-2.81-.88-1.25-.2-2.55-.1-3.71-.73-.2-.81-.57-1.02-1.19-.33-.71.07-1.4.02-2.07-.24-.42-.88-.99-1.05-1.72-.34-.51-.08-1.02-.15-1.53-.23-.47-.85-1.03-1.06-1.73-.25ZM399.7,540.78v.04c18.56,0,37.13,0,55.69,0,27.08,0,54.15,0,81.23-.02.9,0,1.8.01,2.69-.26,3.44-1.04,5.63-4.19,5.63-8.34.05-24.18.09-48.36.12-72.54,0-2.63-.04-5.25-.18-7.87-.11-2.06-.83-2.74-2.85-2.83-1.9-.09-3.8-.09-5.7-.09-26.53-.02-53.07,0-79.6-.07-2.32,0-4.11.57-5.8,2.26-4.48,4.47-9.13,8.76-13.73,13.11-3.21,3.03-6.45,6.04-9.7,9.04-1.77,1.63-2.71,3.55-2.5,6.02.15,1.89.16,3.8.15,5.7-.01,2.27-.62,2.89-2.91,2.93-6.7.11-13.4.25-20.1.26-13.04.02-26.08-.04-39.12-.05-23.36-.02-46.73-.02-70.09-.03-2.64,0-3.15-.5-3.19-3.18-.03-2.35-.02-4.71,0-7.06.01-2.42.63-3.09,3-3.16,2.08-.06,4.16-.06,6.25-.06,31.42,0,62.85,0,94.27.01,3.08,0,6.16.07,9.23-.02,2.12-.06,2.55-.52,2.55-2.31,0-6.88-.07-13.76-.08-20.64,0-1.44-.68-2.21-2.02-2.43-.8-.13-1.62-.14-2.43-.13-6.07.05-12.13.08-18.2.21-2.46.05-4.88-.25-7.3-.59-3.26-.46-6.34-1.69-8.92-3.59-2.82-2.07-5.35-4.63-7.06-7.78-.94-1.73-2.15-3.4-2.37-5.44-.33-3.06-.72-6.1-.67-9.2.12-6.88.16-13.76.16-20.64,0-17.21-.04-34.41-.09-51.62-.01-4.87.54-9.67,3.17-13.83,4.2-6.63,9.82-11.26,18.15-11.75,2.28-.13,4.51.12,6.77.1,8.6-.06,17.2-.06,25.81-.08,24.54-.06,49.08-.12,73.62-.18,19.2-.05,38.39-.14,57.58.33,3.29.08,3.93-.58,3.93-3.95,0-.54-.01-1.09-.01-1.63.04-31.33.09-62.67.13-94,0-6.88.03-13.76.02-20.65,0-2.37-.27-2.67-2.58-2.88-1.44-.13-2.89-.18-4.34-.18-11.95,0-23.91,0-35.86,0-4.14,0-8.24-.61-11.74-2.82-6.55-4.14-10.1-10.18-10.18-18.07-.15-13.85-.21-27.71,0-41.56.04-2.62,0-5.25-.11-7.88-.07-1.86-.41-2.13-2.29-2.26-.45-.03-.91-.01-1.36-.01-20.92-.04-41.84-.11-62.75-.11-29.7,0-59.41.04-89.11.06-20.74.02-41.48.03-62.21.05-1.36,0-2.79-.2-3.98.57-3.1,2.01-5.71,4.19-5.67,8.53.13,12.67,0,25.35-.04,38.03,0,1.51.72,2.5,1.98,3.3,2.98,1.89,5.83,3.96,8.6,6.17,10.25,8.2,19.19,17.6,26.43,28.57,2.34,3.54,4.52,7.17,6.45,10.98,1.83,3.63,3.77,7.23,5.19,11.02,2.21,5.91,4.25,11.89,5.45,18.14,1.17,6.15,2.13,12.3,2.3,18.55.25,9.01-1.08,17.84-2.81,26.66-.77,3.93-1.89,7.75-3.18,11.48-2.01,5.8-4.39,11.47-7.31,16.91-4.38,8.18-9.65,15.73-15.62,22.77-5.74,6.78-12.58,12.47-19.68,17.81-1.8,1.36-3.55,2.86-5.63,3.72-1.52.63-2.09,1.55-2.19,3.03-.06.9-.25,1.8-.24,2.7.09,6.25.25,12.49.32,18.74.02,1.72.71,2.94,2.16,3.79,1.17.69,2.41,1.29,3.49,2.1,6.51,4.87,12.1,10.49,15.59,18.05,2.15,4.65,3.77,9.45,4.35,14.46.59,5.02.39,10.13-.73,15.13-.71,3.16-1.07,6.39-2.17,9.48-1.63,4.59-2.94,9.3-4.66,13.85-2.46,6.5-5.22,12.89-8.32,19.12-2.26,4.53-4.5,9.07-7.19,13.35-1.44,2.29-2.39,4.63-2.34,7.35.11,5.97.19,11.95.3,17.93.09,5.23,3.92,9.13,9.23,9.33,7.69.29,15.39.04,23.09.04,37.94,0,75.89,0,113.83,0ZM424.5,338.41h0c-15.21.01-30.42.02-45.63,0-5.15,0-9.47,4.24-9.47,9.4-.02,22.54-.03,45.08-.05,67.63,0,.99.08,2.01-.1,2.98-.53,2.79-.48,5.62-.22,8.38.27,2.91,1.52,5.4,4.35,7.02,2,1.14,4.05,1.3,6.2,1.59,5.96.8,11.94.59,17.87.21,6.52-.41,13.01-.1,19.52-.31,1.22-.04,1.79.64,2.19,1.65.31.79.24,1.6.24,2.41,0,3.8-.02,7.6-.02,11.41,0,2.9,0,5.79.02,8.69,0,.45.06.95.59,1.09.37.1.72-.11.95-.39,1.19-1.46,2.75-2.55,4.02-3.89,4.66-4.9,9.22-9.89,14.02-14.66.83-.83,1.91-1.56,2.39-2.57,1.47-3.08,3.99-3.77,7.08-3.77,45.15.03,90.29.03,135.44.03,6.07,0,12.13-.05,18.2-.05,2.51,0,4.69-1.15,6.15-2.89,1.72-2.04,2.58-4.57,2.57-7.5-.1-25.44-.05-50.88-.04-76.32,0-.45.02-.91-.02-1.36-.22-3.03-1.23-5.53-4.07-7.18-2.87-1.66-5.98-2.06-9.12-2.04-20.08.18-40.16-.33-60.25.31-13.82.44-27.67.23-41.51-.24-4.76-.16-9.56.36-14.35.36-4.14,0-8.27-.14-12.41-.09-14.85.16-29.69.06-44.54.06ZM288.78,554.68c-7.39-.04-16.07.06-24.74-.49-4.11-.26-8.01-.86-11.71-2.86-4.36-2.35-7.26-5.93-9.11-10.34-1.52-3.59-2.1-7.44-1.93-11.37.04-.9.06-1.82-.03-2.71-.1-.98-.72-1.2-1.54-.72-.38.22-.68.59-1.01.9-4.41,4.28-8.56,8.83-13.31,12.76-4.23,3.5-8.49,6.96-13.2,9.83-3.18,1.94-6.47,3.58-10,4.78-.79.27-2.01.45-2.02,1.5-.01.91,1.01,1.42,1.71,1.98.14.11.31.18.47.26,4.08,2.11,7.6,5.09,11.78,7.11,4.29,2.08,8.59,3.89,13.12,5.37,5.27,1.72,10.68,2.56,16.08,3.53,1.95.35,3.93.61,5.9.66,10.41.28,20.75-.2,30.76-3.52.26-.08.52-.16.79-.18,3.46-.33,6.55-1.96,9.81-2.95,1.65-.5,3.48-1,4.95-1.9,2.31-1.41,4.77-2.51,7.12-3.82,3.26-1.81,6.08-4.18,9.08-6.33.46-.33.77-.8.54-1.4-.25-.65-.9-.67-1.38-.54-1.78.45-3.57.47-5.38.46-5.16-.02-10.32,0-16.76,0ZM493.86,137.26c0,3.16.07,5.77-.01,8.37-.24,7.85.07,15.7-.29,23.57-.18,3.9.38,7.93.23,11.88-.15,3.93,3.61,7.49,7.38,7.44,9.21-.13,18.43.49,27.63-.39.53-.05,1.1-.03,1.62.08,3.32.69,6.67.25,10,.28,1.92.02,2.35-.99,1.19-2.61-1.36-1.91-2.74-3.81-4.4-5.47-9.01-8.99-18.03-17.98-27.04-26.98-3.76-3.75-7.51-7.5-11.02-11.5-1.39-1.59-2.75-3.31-5.29-4.67ZM198.84,129.57c.78-3.38-1.4-5.74-4.02-7.65-2.33-1.7-5.12-2.4-7.97-1.44-6.16,2.06-8.85,7.69-6.46,13.79.94,2.4,2.46,4.34,5.05,5.34,6.35,2.45,14.01-3.09,13.39-10.03ZM240.43,387.65s-.07,0-.1,0c0-.63,0-1.27,0-1.9,0-.72,0-1.45.01-2.17.06-2.59-.7-3.16-3.05-2.02-5.48,2.63-11.29,4.22-17.16,5.66-2.54.63-5.05,1.41-7.68,1.66-1.05.1-1.68.56-1.68,1.7,0,1.3.73,1.73,1.9,1.75.81.01,1.63.07,2.44.1,6.05.22,12.09.58,18.09,1.45,1.61.23,3.2.58,4.81.75,1.68.18,2.34-.41,2.41-2.09.07-1.62.01-3.25.01-4.88ZM187.8,390.7s0-.03,0-.05c-2.62,0-5.25.08-7.87-.03-2.14-.09-2.72,1.56-1.69,3.32.55.93,1.38,1.05,2.32,1.04,3.71-.02,7.42-.06,11.13,0,1.64.02,3.23-.26,4.84-.48,1.04-.14,1.73-.54,1.72-1.67,0-1.16-.65-1.85-1.76-2.06-.53-.1-1.08-.07-1.62-.07-2.35,0-4.7,0-7.06,0Z"/>
      <path class="cls-2" d="M399.7,540.78c-37.94,0-75.89,0-113.83,0-7.7,0-15.39.25-23.09-.04-5.31-.2-9.14-4.1-9.23-9.33-.11-5.97-.19-11.95-.3-17.93-.05-2.72.9-5.06,2.34-7.35,2.69-4.28,4.93-8.82,7.19-13.35,3.1-6.23,5.87-12.62,8.32-19.12,1.72-4.55,3.03-9.26,4.66-13.85,1.1-3.09,1.47-6.32,2.17-9.48,1.12-5.01,1.31-10.11.73-15.13-.58-5.01-2.2-9.81-4.35-14.46-3.49-7.56-9.07-13.18-15.59-18.05-1.08-.81-2.32-1.41-3.49-2.1-1.45-.85-2.14-2.07-2.16-3.79-.07-6.25-.23-12.49-.32-18.74-.01-.9.18-1.8.24-2.7.1-1.48.67-2.4,2.19-3.03,2.07-.86,3.82-2.37,5.63-3.72,7.1-5.34,13.93-11.02,19.68-17.81,5.96-7.04,11.24-14.6,15.62-22.77,2.92-5.45,5.3-11.11,7.31-16.91,1.29-3.74,2.41-7.56,3.18-11.48,1.73-8.81,3.06-17.65,2.81-26.66-.17-6.25-1.13-12.41-2.3-18.55-1.19-6.25-3.23-12.23-5.45-18.14-1.42-3.79-3.36-7.39-5.19-11.02-1.92-3.81-4.11-7.44-6.45-10.98-7.24-10.97-16.18-20.37-26.43-28.57-2.76-2.21-5.62-4.28-8.6-6.17-1.26-.8-1.99-1.78-1.98-3.3.04-12.68.16-25.35.04-38.03-.04-4.33,2.57-6.52,5.67-8.53,1.19-.77,2.62-.57,3.98-.57,20.74-.02,41.48-.04,62.21-.05,29.7-.02,59.41-.06,89.11-.06,20.92,0,41.84.07,62.75.11.45,0,.91-.02,1.36.01,1.88.14,2.22.41,2.29,2.26.1,2.62.15,5.25.11,7.88-.21,13.85-.15,27.71,0,41.56.08,7.9,3.63,13.93,10.18,18.07,3.5,2.21,7.6,2.82,11.74,2.82,11.95,0,23.91-.01,35.86,0,1.45,0,2.9.04,4.34.18,2.31.21,2.57.51,2.58,2.88.01,6.88,0,13.76-.02,20.65-.04,31.33-.09,62.67-.13,94,0,.54.01,1.09.01,1.63,0,3.37-.64,4.03-3.93,3.95-19.19-.47-38.39-.38-57.58-.33-24.54.06-49.08.12-73.62.18-8.6.02-17.21.02-25.81.08-2.26.02-4.49-.24-6.77-.1-8.33.48-13.95,5.11-18.15,11.75-2.63,4.15-3.18,8.96-3.17,13.83.05,17.21.08,34.41.09,51.62,0,6.88-.04,13.76-.16,20.64-.05,3.1.35,6.14.67,9.2.22,2.04,1.42,3.71,2.37,5.44,1.72,3.15,4.25,5.71,7.06,7.78,2.58,1.9,5.66,3.12,8.92,3.59,2.42.34,4.84.64,7.3.59,6.06-.12,12.13-.15,18.2-.21.81,0,1.63,0,2.43.13,1.34.22,2.02.99,2.02,2.43,0,6.88.07,13.76.08,20.64,0,1.79-.44,2.24-2.55,2.31-3.08.09-6.16.02-9.23.02-31.42,0-62.85-.01-94.27-.01-2.08,0-4.17,0-6.25.06-2.37.07-2.99.75-3,3.16-.01,2.35-.03,4.71,0,7.06.04,2.69.55,3.18,3.19,3.18,23.36.01,46.73.01,70.09.03,13.04,0,26.08.07,39.12.05,6.7-.01,13.4-.15,20.1-.26,2.29-.04,2.9-.66,2.91-2.93,0-1.9,0-3.81-.15-5.7-.2-2.47.74-4.39,2.5-6.02,3.25-3,6.49-6.01,9.7-9.04,4.6-4.34,9.25-8.64,13.73-13.11,1.69-1.69,3.48-2.27,5.8-2.26,26.53.07,53.07.06,79.6.07,1.9,0,3.8,0,5.7.09,2.01.1,2.74.78,2.85,2.83.14,2.62.18,5.25.18,7.87-.03,24.18-.06,48.36-.12,72.54,0,4.14-2.2,7.3-5.63,8.34-.89.27-1.79.26-2.69.26-27.08,0-54.15.01-81.23.02-18.56,0-37.13,0-55.69,0v-.04ZM424.36,244.71s0-.04,0-.06c20.55,0,41.11,0,61.66,0,10.77,0,21.55-.04,32.32-.06,2.7,0,3.29-.58,3.31-3.39.02-2.44.03-4.89.01-7.33-.01-2.52-.65-3.12-3.29-3.11-20.28.05-40.56.13-60.85.16-40.84.05-81.67.06-122.51.09-1.72,0-3.44-.05-5.15.02-1.78.07-2.69.81-2.64,2.42.1,2.9-.1,5.79-.09,8.68,0,1.41.83,2.14,2.16,2.35.44.07.9.05,1.35.06,12.4.06,24.81.16,37.21.18,18.83.03,37.67,0,56.5,0ZM372.46,504.41s0,.05,0,.08c-24.72,0-49.43,0-74.15,0-2.08,0-4.16-.05-6.24,0-1.69.04-2.38.52-2.44,1.91-.14,3.07-.22,6.15-.16,9.23.04,1.79,1.09,2.52,2.9,2.35.72-.07,1.46-.31,2.14-.2,2.97.47,5.96.33,8.95.33,30.78.02,61.57.05,92.35.03,18.74-.01,37.48-.1,56.22-.16,2.22,0,2.69-.28,2.84-2.35.21-3.07.22-6.15.27-9.22.03-1.33-.75-1.98-2.02-2.07-.72-.05-1.45-.04-2.17-.04-8.96.04-17.93.11-26.89.12-17.2.02-34.4,0-51.61,0ZM415.39,274.44c0,.07,0,.14,0,.21,1.26-.08,2.53-.23,3.79-.23,15.84.03,31.68.08,47.52.15,2.43.01,3.11-.46,2.98-2.9-.15-2.72-.09-5.42-.04-8.14.03-1.81-.55-2.43-2.34-2.65-.62-.07-1.27-.02-1.9-.02-32.22.01-64.45.03-96.67.04-1.81,0-3.62-.11-5.43-.1-1.67,0-2.51.6-2.39,1.89.31,3.17.03,6.33.19,9.49.1,2.08.73,2.51,2.97,2.48,6.88-.09,13.76-.2,20.63-.23,10.23-.04,20.45-.01,30.68-.01ZM374.65,291.07c0-.08,0-.17,0-.25-10.59,0-21.18-.01-31.77,0-4.43,0-8.87.02-13.3.13-2.3.06-2.76.7-2.75,3.02.02,2.44,0,4.89-.04,7.33-.04,2.49.64,3.25,3.15,3.27,2.08.01,4.16-.1,6.24-.09,27.43.06,54.85.13,82.28.19.54,0,1.1.04,1.62-.07,1.17-.25,1.96-.91,1.95-2.23-.03-2.98-.05-5.97-.08-8.95-.01-1.3-.79-2-1.96-2.23-.79-.15-1.62-.12-2.43-.12-14.3,0-28.6,0-42.91,0ZM478.4,290.87v.23c-13.29,0-26.59,0-39.88,0-2.2,0-2.87.64-2.92,2.93-.05,2.35-.06,4.7-.08,7.05-.03,3.01.44,3.49,3.4,3.49,26.59,0,53.18,0,79.77,0,2.36,0,3.13-.7,3.14-3.02,0-2.62-.06-5.24-.17-7.86-.09-2.13-.69-2.68-2.84-2.72-2.62-.06-5.24-.09-7.86-.09-10.85,0-21.7,0-32.56,0ZM480.88,488.01c0,.08,0,.15,0,.23,10.5,0,20.99,0,31.49,0,2.26,0,4.52.11,6.79.07,2.07-.04,2.74-.76,2.74-2.84,0-2.71-.01-5.43-.12-8.14-.08-2.12-.97-2.89-3.08-2.86-.63,0-1.26.08-1.9.09-19.27.03-38.54.05-57.82.08-5.43,0-10.86,0-16.29.03-2.26.01-2.99.65-3.02,2.83-.04,2.71-.02,5.43.1,8.14.08,1.81.79,2.38,2.57,2.38,12.85,0,25.69,0,38.54,0ZM501.91,274.68s0,.06,0,.09c5.6,0,11.2-.01,16.79,0,2.05,0,3.04-.81,3.09-2.86.06-2.53-.05-5.06,0-7.59.06-2.96-.42-3.5-3.32-3.49-9.94.05-19.88.11-29.82.15-1.17,0-2.35-.16-3.52-.09-1.78.1-2.31.75-2.32,2.57,0,1.08.02,2.17,0,3.25-.03,1.81-.17,3.61-.11,5.42.06,1.89.72,2.53,2.39,2.54,5.6.01,11.2,0,16.81,0ZM337.27,274.89s0-.1,0-.14c2.44,0,4.87.02,7.31,0,2.78-.03,3.24-.51,3.23-3.34,0-2.43-.07-4.87-.06-7.3.01-2.66-.45-3.18-3.05-3.15-4.15.04-8.3.09-12.44.14-.99.01-1.99-.06-2.97.03-1.22.11-2,.74-2.01,2.09,0,3.07-.11,6.14-.01,9.2.06,2.01.71,2.49,2.7,2.49,2.43,0,4.87,0,7.3,0ZM478.91,504.28s0,.06,0,.1c-2.53,0-5.06-.03-7.59,0-2.17.03-2.82.6-2.88,2.67-.08,2.8-.12,5.6-.03,8.4.06,1.98.95,2.76,2.94,2.66,1.9-.1,3.79-.04,5.68,0,2.98.06,5.96.02,8.94-.02,1.81-.03,2.87-.77,2.89-2.16.04-3.07.03-6.14-.12-9.2-.1-1.97-.98-2.51-3.07-2.46-2.25.06-4.51.01-6.77.01ZM511.66,504.1c-2.17,0-4.34-.02-6.51,0-2.11.02-2.54.38-2.62,2.51-.11,2.8-.19,5.6-.13,8.4.05,2.43.47,2.73,2.96,2.72,4.6-.02,9.21-.02,13.81.28,1.89.13,2.79-.73,2.81-2.76.02-2.62-.08-5.24-.09-7.86-.01-2.56-.83-3.45-3.45-3.26-2.26.17-4.52-.01-6.77-.05Z"/>
      <path class="cls-1" d="M424.5,338.41c14.85,0,29.7.1,44.54-.06,4.14-.04,8.27.09,12.41.09,4.79,0,9.59-.53,14.35-.36,13.84.47,27.69.68,41.51.24,20.09-.64,40.17-.14,60.25-.31,3.14-.03,6.25.37,9.12,2.04,2.85,1.65,3.85,4.14,4.07,7.18.03.45.02.9.02,1.36,0,25.44-.06,50.88.04,76.32.01,2.93-.85,5.46-2.57,7.5-1.46,1.74-3.64,2.88-6.15,2.89-6.07,0-12.13.05-18.2.05-45.15,0-90.29,0-135.44-.03-3.09,0-5.61.69-7.08,3.77-.48,1.01-1.56,1.74-2.39,2.57-4.8,4.77-9.36,9.76-14.02,14.66-1.28,1.34-2.83,2.43-4.02,3.89-.23.28-.58.49-.95.39-.53-.14-.59-.64-.59-1.09-.02-2.9-.03-5.79-.02-8.69,0-3.8.02-7.6.02-11.41,0-.81.08-1.63-.24-2.41-.4-1-.97-1.69-2.19-1.65-6.5.22-13-.1-19.52.31-5.93.37-11.91.58-17.87-.21-2.15-.29-4.2-.44-6.2-1.59-2.83-1.62-4.07-4.11-4.35-7.02-.26-2.76-.32-5.59.22-8.38.18-.96.1-1.98.1-2.98.02-22.54.03-45.08.05-67.63,0-5.16,4.32-9.4,9.47-9.4,15.21.01,30.42,0,45.63,0h0ZM490.35,372.59v-.05c29.42,0,58.84,0,88.26,0,1.9,0,3.8-.01,5.7,0,1.3.01,2.23-.62,2.15-1.89-.13-2.09.29-4.15.16-6.23-.12-1.91-.78-2.47-2.78-2.49-1.63-.02-3.26,0-4.89,0-52.87,0-105.73.02-158.6-.02-7.96,0-15.92.21-23.88-.19-1.49-.08-2.49.72-2.68,2.45-.22,1.88-.27,3.8-.14,5.68.13,1.94,1.26,2.78,3.28,2.79,1.36,0,2.72-.05,4.07-.05,29.78,0,59.57,0,89.35,0ZM490.29,397.09v.02c29.77,0,59.55,0,89.32,0,1.63,0,3.26,0,4.89-.07,1.26-.06,2.01-.71,2.02-2.05.01-1.81.11-3.62.04-5.43-.07-1.87-.81-2.48-2.73-2.59-2.61-.14-5.21-.2-7.83-.14-5.24.12-10.49-.14-15.74-.15-19.82-.05-39.63-.02-59.45.13-32.76.25-65.52.09-98.28.11-1.99,0-3.98-.03-5.97.06-2.47.11-3.32,1.11-2.82,3.44.2.93.04,1.77-.02,2.67-.18,2.91.85,4,3.71,4,30.95,0,61.9,0,92.85,0ZM467.43,411.5v.04c-5.96,0-11.92-.03-17.88.02-2.2.02-3.12,1.06-3.05,3.19.02.81.12,1.62.15,2.43.12,2.64.6,3.1,3.25,3.12,8.58.06,17.16-.04,25.73.29,3.14.12,6.27-.45,9.41.16,1.32.26,2.55-.98,2.69-2.46.1-1.07.02-2.16.08-3.24.14-2.93-.39-3.53-3.31-3.54-5.69-.01-11.38,0-17.06,0Z"/>
      <path class="cls-1" d="M265.31,448.27c.78.93.25,1.87.04,2.81-1.39,6.09-3.36,12-5.4,17.89-.9,2.6-2.28,4.9-3.9,7.08-1.56,2.09-2.82,4.26-3.58,6.84-.87,2.93-2.48,5.61-4.02,8.28-2.7,4.69-5.92,9.05-9.12,13.4-3.41,4.63-7.1,9.07-10.73,13.54-.73.9-1.71,1.6-2.58,2.39-.54.48-1.17.88-1.62,1.43-3.15,3.88-6.98,7.04-10.84,10.14-3.95,3.16-8.2,5.96-12.93,7.84-1.59.63-3.08,1.49-4.75,1.96-3.41.95-6.79,1.3-10.38,1.1-5.82-.33-10.81-2.56-15.66-5.46-8.43-5.05-15.66-11.47-22.11-18.86-4.09-4.7-8.04-9.5-11.67-14.55-2.46-3.43-4.87-6.91-7.06-10.52-1.86-3.06-3.3-6.37-5.05-9.5-2.64-4.71-4.56-9.75-6.61-14.7-1.49-3.62-2.99-7.31-3.87-11.21-.95-4.22-2.37-8.33-2.83-12.65-.46-4.33-.48-8.63.95-12.82.46-1.36.8-2.76,1.19-4.13,1.27-4.43,4.1-7.73,7.21-10.87,3.09-3.13,6.82-5.24,10.85-6.99,3.19-1.38,6.5-2.1,9.84-2.84,1.59-.35,3.15-.7,4.62-1.45,1.3-.66,2.73-.88,4.14-.18-.56.8-1.49.5-2.24.72-2.25.68-2.63,1.28-2.2,3.53.68,3.61,2.87,6.27,5.69,8.29,3.69,2.63,8.13,3.64,12.51,4.04,5.48.51,11,.8,16.53.66,2.82-.07,3.22.24,4.06,2.91,2.31,7.32,4.66,14.63,7.37,21.82,1.08,2.87,2.19,5.78,3.55,8.5,2.05,4.1,3.7,8.38,5.8,12.44,2.29,4.42,4.79,8.71,7.83,12.63.91,1.17,1.76,2.55,2.96,3.43,3.56,2.6,7.04,5.36,11.29,6.86,5.65,2,11.14,2.27,16.29-1.37,3.39-2.39,6.53-5.07,9.51-7.98,4.87-4.77,9.43-9.61,11.45-16.39,1.26-4.23,2.93-8.34,3.78-12.7.35-1.83.67-3.71,1.7-5.34Z"/>
      <path class="cls-1" d="M264.66,348.42c-.03,1.28-1.12,1.55-1.97,1.96-2.62,1.29-4.82,3.14-7.02,5.01-3.37,2.86-7,5.28-10.93,7.35-2.28,1.21-4.64,2.32-6.83,3.77-1.61,1.07-3.34,2.01-5.28,2.57-2.07.6-4.05,1.52-6.02,2.43-2.47,1.13-4.98,2.02-7.69,2.43-1.95.3-3.81,1.1-5.74,1.54-10.39,2.38-20.96,2.4-31.52,2.07-4.57-.14-9.16-.63-13.64-1.74-.18-.04-.35-.17-.52-.16-3.21.17-6.18-.95-9.18-1.79-3.42-.96-6.99-1.46-10.17-3.29-2.58-1.49-5.49-2.28-8.21-3.51-3.55-1.61-6.65-4.01-10.21-5.55-3.09-1.33-5.55-3.6-8.03-5.7-3.76-3.18-7.72-6.11-11.05-9.88-2.86-3.24-5.44-6.74-8.49-9.83-1.32-1.34-2.25-3.05-3.17-4.63-1.99-3.42-4.13-6.75-5.81-10.39-1.55-3.36-3.01-6.74-4.42-10.15-1.29-3.12-1.94-6.39-2.85-9.59-2.54-8.92-3.01-18.07-2.94-27.3.05-6.36.84-12.56,2.24-18.76,1.15-5.1,2.76-10.05,4.28-15.04.5-1.63,1.44-3.1,2.21-4.6,2.74-5.36,5.43-10.74,8.96-15.68,3.89-5.44,8.02-10.65,12.79-15.34,4.04-3.97,8.3-7.71,12.82-11.13,3.08-2.33,6.45-4.26,9.28-6.94.48-.46,1.15-.93,1.96-.67.09.95-1.2,1.09-1.18,2.19.79.69,1.72,1.35,2.91,1.59,4.43.9,8.8,2.11,13.3,2.65,7.62.92,15.26,1.74,22.88,2.67,8.34,1.01,16.64,2.18,24.93,3.55,7.05,1.17,14.05,2.54,21.03,4.01,4.51.94,8.92,2.28,13.42,3.29,2.99.67,5.84,1.92,8.8,2.74,5.59,1.56,10.87,3.98,16.04,6.5,6.92,3.37,12.98,8.05,17.99,14.02,2.69,3.2,4.39,6.9,5.44,10.78.81,3.02,1.28,6.18,1.86,9.28,1.18,6.34,1.25,12.76.66,19.2-.73,8.01-1.87,15.99-2.04,24.04-.1,4.55-.96,9-2.09,13.36-1.98,7.6-4.3,15.06-7.79,22.2-2.86,5.85-5.54,11.75-9.27,17.12-.67.97-1.12,2.07-1.42,3.22-.03.06-.06.11-.09.17.02-.07.03-.14.05-.21.57.06,1.14.12,1.71.18ZM189.67,209.67c-6.54.08-11.75.06-16.97.99-3.35.6-6.86.72-10.13,1.55-5.4,1.39-10.86,2.64-16.15,4.5-5.82,2.04-11.36,4.64-16.62,7.78-1.46.88-3.09,1.45-4.45,2.48-3.54,2.68-6.69,5.82-9.8,8.93-3.95,3.93-7.15,8.56-9.64,13.6-2.6,5.27-4.72,10.71-5.97,16.49-1,4.61-1.62,9.22-1.63,13.93,0,3.34.17,6.66.44,10,.37,4.45,1.28,8.78,2.74,12.89,2.41,6.83,5.91,13.16,10.89,18.54.69.74.84,1.79,1.65,2.46,3.21,2.66,5.91,5.85,8.97,8.67,1.99,1.84,4.1,3.53,6.38,5,3.94,2.53,7.77,5.24,12.13,7.04,2.91,1.2,5.69,2.88,8.7,3.64,3.4.85,6.74,1.97,10.16,2.78,6.78,1.61,13.62,2.8,20.52,3.23,6.38.4,12.8.42,19.22-.3,7.2-.81,14.24-2.24,21.15-4.3,1.95-.58,3.96-1.07,5.87-1.82,2.18-.85,4.32-1.8,6.47-2.73,5.8-2.52,11.22-5.74,16.29-9.46,4.78-3.51,9.44-7.26,13.16-11.98,2.45-3.11,4.83-6.26,6.93-9.64,1.63-2.62,2.53-5.54,4-8.22,1.83-3.32,3.04-6.87,3.85-10.59.7-3.18,1.43-6.34,1.5-9.59.09-3.8-.07-7.61,0-11.41.08-3.77-.71-7.44-1.94-10.87-1.79-4.97-3.62-9.98-6.28-14.61-4.18-7.29-9.94-13.22-16.05-18.86-.26-.24-.59-.41-.9-.6-3.29-2.01-6.14-4.68-9.67-6.36-3.48-1.66-6.67-4.04-10.27-5.32-4.82-1.71-9.67-3.48-14.71-4.57-10.27-2.21-20.63-3.42-29.83-3.27Z"/>
      <path class="cls-2" d="M265.31,448.27c-1.03,1.63-1.34,3.51-1.7,5.34-.85,4.37-2.52,8.47-3.78,12.7-2.02,6.77-6.58,11.62-11.45,16.39-2.98,2.92-6.12,5.59-9.51,7.98-5.15,3.64-10.64,3.37-16.29,1.37-4.25-1.5-7.73-4.26-11.29-6.86-1.21-.88-2.06-2.26-2.96-3.43-3.04-3.92-5.55-8.21-7.83-12.63-2.11-4.07-3.75-8.34-5.8-12.44-1.36-2.72-2.46-5.62-3.55-8.5-2.71-7.19-5.06-14.49-7.37-21.82-.84-2.67-1.24-2.98-4.06-2.91-5.52.14-11.05-.15-16.53-.66-4.38-.41-8.82-1.41-12.51-4.04-2.83-2.01-5.02-4.68-5.69-8.29-.42-2.25-.05-2.85,2.2-3.53.75-.23,1.67.07,2.24-.72,2.53-.09,5.06-.18,7.59-.27,2.91.5,5.81.69,8.69-.13,1.09,0,2.18-.01,3.27-.02.34.52.75.53,1.2.16,2.46.15,4.5,1.79,6.96,1.96.26.56.65.7,1.18.36.48.25.99.31,1.52.27.72.77,1.49.61,2.29.15,3.54.37,7.08.49,10.63.03.64.41,1.23.48,1.75-.2.87-.09,1.74-.18,2.61-.27.53.37.93.3,1.18-.33.33-.1.66-.2.98-.31.46.34.87.33,1.2-.19.93-.04,1.79-.32,2.63-.71,1.1.13,2.04-.17,2.79-1,.33-.07.66-.14.99-.22,1.36.42,2.7.28,4.04-.07,3.03.43,6.07.36,9.12.4.73.68,1.5.5,2.29.12,1.38.44,2.81.35,4.23.4.48.64,1.06.72,1.73.3.51.09,1.02.17,1.52.26.33.53.73.58,1.2.19,1.96.28,3.91.56,5.87.84.27.56.66.67,1.19.33,1,.47,2.04.77,3.16.76.27.41.75.45,1.13.67,1.96,1.1,4.29,1.33,6.17,2.59,3.1,2.09,6.48,3.81,8.79,6.92.31.42.75.78,1.37.65,0,0,.06.06.06.06-.07.67.17,1.12.87,1.26.26.31.53.62.79.92-.32,1.22.55,2.02,1.07,2.94,2.38,4.23,3.96,8.64,3.86,13.61-.05,2.69-.36,5.39.06,8.08-.04.51-.09,1.02-.13,1.53Z"/>
      <path class="cls-2" d="M264.66,348.42c-.57-.06-1.14-.12-1.71-.18l.04.04c.3-1.15.74-2.25,1.42-3.22,3.73-5.37,6.41-11.27,9.27-17.12,3.5-7.14,5.82-14.6,7.79-22.2,1.14-4.36,1.99-8.82,2.09-13.36.17-8.06,1.31-16.03,2.04-24.04.59-6.44.52-12.86-.66-19.2-.58-3.1-1.05-6.26-1.86-9.28-1.05-3.88-2.75-7.58-5.44-10.78-5.02-5.97-11.07-10.65-17.99-14.02-5.17-2.52-10.44-4.94-16.04-6.5-2.96-.83-5.81-2.07-8.8-2.74-4.5-1.01-8.91-2.34-13.42-3.29-6.98-1.46-13.98-2.84-21.03-4.01-8.29-1.37-16.6-2.55-24.93-3.55-7.62-.92-15.26-1.75-22.88-2.67-4.5-.54-8.87-1.74-13.3-2.65-1.19-.24-2.12-.89-2.91-1.59-.02-1.1,1.27-1.23,1.18-2.19.17-.02.3-.1.39-.24,1.17,0,2.34-.03,2.96-1.3.16,0,.27-.07.34-.21,1.07.05,1.87-.42,2.46-1.29.43-.16.86-.32,1.29-.48,1.52.17,2.57-.72,3.63-1.61,1.41-.83,3.04-1.03,4.54-1.6.69.28,1.14.02,1.42-.63.78-.21,1.56-.42,2.34-.63.5.32.89.22,1.19-.29.33-.07.66-.15.99-.22.66.34,1.14.18,1.44-.5.96-.22,1.93-.45,2.89-.67.46.36.86.32,1.2-.18.51-.09,1.02-.17,1.53-.26.68.36,1.27.35,1.72-.37.51-.09,1.02-.18,1.53-.27.48.38.88.29,1.2-.22,2.18.02,4.27-.59,6.41-.84,1.34.46,2.65.5,3.9-.3,5.62,0,11.24,0,16.86,0,.47.67,1.06.73,1.73.32.87.09,1.74.17,2.62.26.49.68,1.09.61,1.73.25.51.08,1.02.15,1.53.23.46.69,1.05.72,1.72.34.67.25,1.37.3,2.07.24.28.53.69.58,1.19.33,1.16.63,2.46.53,3.71.73.8.75,1.7,1.15,2.81.88,1.21.36,2.42.73,3.7.81.29.51.68.63,1.19.31,1.08.89,2.37,1.15,3.71,1.25.22.57.61.72,1.16.46,1.33.53,2.66,1.06,3.99,1.59,1.11,1.22,2.57,1.62,4.15,1.71.25.15.51.29.76.44.32.59.75.9,1.43.58,3.73,2.11,7.46,4.22,11.19,6.32.04.41.26.55.65.45.32.21.65.42.97.63.13.73.56,1.01,1.28.86.08.13.19.21.35.23.13.69.51,1.04,1.24.95,2.82,2.64,5.96,4.88,8.82,7.48,4.87,4.42,9.39,9.13,13.49,14.25-.15.76.22,1.14.95,1.23,3.8,5.09,7.24,10.41,10.07,16.1-.27.71,0,1.15.71,1.37,1.03,1.63,1.21,3.68,2.55,5.16-.25.52-.14.92.4,1.16.17,1.15.64,2.19,1.24,3.18.02,1.63.44,3.13,1.47,4.43-.05,1.74,1.09,3.14,1.41,4.78-.38.47-.32.88.2,1.2.24,1.24.49,2.48.73,3.72-.28.52-.22.92.36,1.17.12.5.23,1.01.35,1.51-.33.46-.31.87.19,1.2.13,1.41.27,2.82.4,4.23-.39.8-.51,1.58.19,2.29.05.34.1.67.15,1.01-.37.83-.4,1.61.35,2.26,0,3.26,0,6.53,0,9.79-.73.68-.72,1.45-.29,2.27-.25.86-.3,1.73-.24,2.62-.47.34-.51.74-.18,1.2-.32,1.03-.32,2.09-.35,3.15-.47.33-.56.72-.22,1.2l-.37,1.51c-.61.24-.64.66-.36,1.17-.45,1.39-.66,2.82-.67,4.27-.67.62-1.26,1.27-.8,2.28-.09.33-.18.65-.26.98-.85.76-1.09,1.72-.91,2.81-.36,1.15-.71,2.3-1.07,3.45-1.15.74-1.17,1.89-1.12,3.06-.18.42-.37.84-.55,1.26-.62.32-.86.79-.52,1.46-.55,1.14-1.11,2.28-1.66,3.43-.83.64-1.27,1.45-1.17,2.52-1.99,3.61-4.17,7.09-6.39,10.56-.63.98-1.28,1.93-2,2.85-1.18.34-1.35,1.31-1.47,2.32-1.53,1.77-3.05,3.54-4.58,5.32-2.17,2.53-4.4,5.01-6.87,7.26Z"/>
      <path class="cls-1" d="M288.78,554.68c6.44,0,11.6-.01,16.76,0,1.81,0,3.61,0,5.38-.46.49-.12,1.13-.1,1.38.54.23.6-.08,1.06-.54,1.4-3,2.15-5.83,4.52-9.08,6.33-2.35,1.31-4.81,2.41-7.12,3.82-1.47.9-3.3,1.4-4.95,1.9-3.26.99-6.35,2.62-9.81,2.95-.27.03-.53.1-.79.18-10.01,3.32-20.35,3.8-30.76,3.52-1.97-.05-3.96-.31-5.9-.66-5.4-.97-10.81-1.81-16.08-3.53-4.53-1.48-8.84-3.29-13.12-5.37-4.18-2.03-7.71-5-11.78-7.11-.16-.08-.33-.15-.47-.26-.7-.56-1.72-1.06-1.71-1.98.01-1.06,1.24-1.24,2.02-1.5,3.53-1.2,6.82-2.84,10-4.78,4.71-2.87,8.96-6.32,13.2-9.83,4.75-3.93,8.9-8.48,13.31-12.76.32-.31.63-.68,1.01-.9.81-.48,1.44-.26,1.54.72.09.9.07,1.81.03,2.71-.16,3.93.42,7.78,1.93,11.37,1.86,4.4,4.76,7.98,9.11,10.34,3.7,2,7.59,2.6,11.71,2.86,8.67.55,17.35.45,24.74.49Z"/>
      <path class="cls-1" d="M493.86,137.26c2.55,1.36,3.9,3.08,5.29,4.67,3.51,4,7.26,7.75,11.02,11.5,9.01,9,18.03,17.99,27.04,26.98,1.66,1.66,3.05,3.56,4.4,5.47,1.15,1.62.72,2.63-1.19,2.61-3.33-.03-6.68.41-10-.28-.52-.11-1.09-.13-1.62-.08-9.2.88-18.42.27-27.63.39-3.77.05-7.53-3.51-7.38-7.44.15-3.95-.41-7.99-.23-11.88.36-7.86.06-15.72.29-23.57.08-2.6.01-5.2.01-8.37Z"/>
      <path class="cls-2" d="M198.84,129.57c.61,6.94-7.04,12.48-13.39,10.03-2.59-1-4.11-2.94-5.05-5.34-2.39-6.1.3-11.73,6.46-13.79,2.85-.95,5.64-.26,7.97,1.44,2.62,1.91,4.79,4.27,4.02,7.65ZM183.29,134.44c.53-.98.61-2.19.08-3.02-.82-1.29-.42-2.26,0-3.5.47-1.39,1.62-2.14,2.33-3.25.99-1.55,2.23-1.58,3.73-1.2,1.16.29,2.21.72,2.98,1.72.84,1.09,2,1.75,3.27,2.27q.26-1.55,0-2.01c-1.95-3.62-5.44-4.22-8.55-3.12-2.18.77-4.25,2.1-5.11,4.15-1.06,2.51-.82,5.29.62,7.79.06.1.32.09.64.16ZM190.44,137.62c-.34-.68-.86-.66-1.24-.55-1.44.42-2.64.35-3.34-1.22-.06-.14-.26-.26-.42-.31-.34-.11-.74-.23-.96.16-.12.2-.16.54-.08.75.54,1.36,1.88,1.64,3.04,1.94,1.03.27,2.29.45,2.99-.77Z"/>
      <path class="cls-2" d="M240.43,387.65c0,1.63.05,3.26-.01,4.88-.07,1.68-.73,2.27-2.41,2.09-1.61-.17-3.2-.52-4.81-.75-6-.87-12.04-1.23-18.09-1.45-.81-.03-1.63-.09-2.44-.1-1.17-.02-1.91-.45-1.9-1.75,0-1.13.63-1.6,1.68-1.7,2.62-.25,5.13-1.03,7.68-1.66,5.87-1.45,11.68-3.03,17.16-5.66,2.35-1.13,3.12-.57,3.05,2.02-.02.72,0,1.45-.01,2.17,0,.63,0,1.27,0,1.9.03,0,.07,0,.1,0Z"/>
      <path class="cls-4" d="M187.8,390.7c2.35,0,4.7,0,7.06,0,.54,0,1.1-.03,1.62.07,1.11.21,1.76.9,1.76,2.06,0,1.13-.68,1.53-1.72,1.67-1.61.22-3.19.5-4.84.48-3.71-.05-7.42-.01-11.13,0-.94,0-1.77-.11-2.32-1.04-1.03-1.76-.44-3.41,1.69-3.32,2.62.11,5.24.03,7.87.03,0,.02,0,.03,0,.05Z"/>
      <path class="cls-4" d="M265.44,446.74c-.43-2.69-.12-5.39-.06-8.08.1-4.97-1.48-9.38-3.86-13.61-.52-.91-1.39-1.71-1.07-2.94,1.75,1.27,2.36,3.31,3.29,5.09,3.05,5.84,2.75,12.18,2.42,18.49-.02.46-.22.87-.71,1.05Z"/>
      <path class="cls-4" d="M258.72,419.87c-.62.13-1.06-.23-1.37-.65-2.3-3.11-5.69-4.83-8.79-6.92-1.88-1.27-4.21-1.5-6.17-2.59-.38-.21-.86-.25-1.13-.67.32-.46.76-.42,1.2-.27,5.28,1.72,10.01,4.44,14.2,8.04.9.78,1.76,1.78,2.06,3.06Z"/>
      <path class="cls-4" d="M165.71,405.82c-2.89.82-5.79.63-8.69.13.05-.07.1-.19.16-.21,2.85-.53,5.69-.8,8.53.07Z"/>
      <path class="cls-4" d="M210.95,405.44c-1.34.35-2.69.5-4.04.07,1.33-1.11,2.68-1.22,4.04-.07Z"/>
      <path class="cls-4" d="M292.38,248.31c-1.03-1.3-1.46-2.79-1.47-4.43,1.3,1.45,1.7,2.67,1.47,4.43Z"/>
      <path class="cls-4" d="M180.93,173.79c-1.25.79-2.56.76-3.9.3,1.22-1.15,2.53-1.04,3.9-.3Z"/>
      <path class="cls-4" d="M234.8,183.5c-1.58-.1-3.03-.49-4.15-1.71,1.67-.14,3.11.3,4.15,1.71Z"/>
      <path class="cls-4" d="M148.62,180.76c-1.06.88-2.11,1.78-3.63,1.61.87-1.29,1.98-2.05,3.63-1.61Z"/>
      <path class="cls-4" d="M292.05,304.92c-.17-1.09.07-2.05.91-2.81.51,1.2.16,2.12-.91,2.81Z"/>
      <path class="cls-4" d="M289.86,311.44c-.05-1.18-.03-2.33,1.12-3.06.21,1.24.02,2.33-1.12,3.06Z"/>
      <path class="cls-4" d="M205.91,405.73c-.75.84-1.69,1.14-2.79,1,.63-1.16,1.58-1.45,2.79-1Z"/>
      <path class="cls-4" d="M140.9,184.34c-.62,1.27-1.79,1.29-2.96,1.3.65-1.21,1.75-1.37,2.96-1.3Z"/>
      <path class="cls-4" d="M216.9,177.36c-1.11.27-2.02-.14-2.81-.88,1.2-.56,2.12-.19,2.81.88Z"/>
      <path class="cls-4" d="M296.41,283.73c-.43-.83-.44-1.6.29-2.27.73.86.73,1.64-.29,2.27Z"/>
      <path class="cls-4" d="M276.1,335.84c.11-1.01.29-1.99,1.47-2.32.01,1.09-.23,2.02-1.47,2.32Z"/>
      <path class="cls-4" d="M293.23,301.14c-.46-1.02.12-1.66.8-2.28.63,1.08.03,1.72-.8,2.28Z"/>
      <path class="cls-4" d="M296.21,268.41c-.7-.71-.58-1.49-.19-2.29.8.7.92,1.46.19,2.29Z"/>
      <path class="cls-4" d="M285.95,320.1c-.1-1.07.34-1.88,1.17-2.52.39,1.21.04,2.06-1.17,2.52Z"/>
      <path class="cls-4" d="M182.14,408.7c-.8.46-1.57.62-2.29-.15.81-.73,1.58-.71,2.29.15Z"/>
      <path class="cls-4" d="M222.35,405.95c-.78.39-1.56.57-2.29-.12.8-.73,1.57-.76,2.29.12Z"/>
      <path class="cls-4" d="M296.72,271.67c-.75-.65-.72-1.43-.35-2.26,1.12.6,1.05,1.38.35,2.26Z"/>
      <path class="cls-4" d="M143.7,182.85c-.59.86-1.39,1.34-2.46,1.29.34-1.35,1.21-1.68,2.46-1.29Z"/>
      <path class="cls-4" d="M203.87,174.62c-.64.37-1.24.43-1.73-.25.71-.82,1.27-.6,1.73.25Z"/>
      <path class="cls-4" d="M167.89,175.41c-.44.72-1.04.72-1.72.37.39-.98.95-1.14,1.72-.37Z"/>
      <path class="cls-4" d="M199.52,174.11c-.67.41-1.26.34-1.73-.32.74-.77,1.29-.53,1.73.32Z"/>
      <path class="cls-4" d="M228.32,406.66c-.67.42-1.25.34-1.73-.3.72-.73,1.3-.66,1.73.3Z"/>
      <path class="cls-4" d="M194.51,408.54c-.51.67-1.11.61-1.75.2.49-.84,1.07-.96,1.75-.2Z"/>
      <path class="cls-4" d="M207.12,175.19c-.67.38-1.26.35-1.72-.34.74-.71,1.3-.55,1.72.34Z"/>
      <path class="cls-4" d="M289.67,240.7c-.55-.25-.65-.64-.4-1.16.8.16,1.05.51.4,1.16Z"/>
      <path class="cls-4" d="M286.71,234.38c-.7-.21-.97-.65-.71-1.37.82.15,1,.64.71,1.37Z"/>
      <path class="cls-4" d="M275.93,216.91c-.73-.09-1.09-.46-.95-1.23.83.01,1.13.43.95,1.23Z"/>
      <path class="cls-4" d="M252.67,193.96c-.73.09-1.11-.26-1.24-.95.81-.2,1.25.07,1.24.95Z"/>
      <path class="cls-4" d="M251.08,192.78c-.72.15-1.15-.13-1.28-.86.77-.23,1.21.04,1.28.86Z"/>
      <path class="cls-4" d="M170.19,405.96c-.46.37-.86.36-1.2-.16.5-.71.88-.53,1.2.16Z"/>
      <path class="cls-4" d="M170.61,174.93c-.32.51-.72.6-1.2.22.28-.74.66-.93,1.2-.22Z"/>
      <path class="cls-4" d="M210.38,175.76c-.5.25-.91.2-1.19-.33.62-.68.99-.48,1.19.33Z"/>
      <path class="cls-4" d="M231.04,407.11c-.47.39-.88.34-1.2-.19.53-.73.91-.53,1.2.19Z"/>
      <path class="cls-4" d="M200.49,407.44c-.33.52-.74.53-1.2.19.31-.65.68-.88,1.2-.19Z"/>
      <path class="cls-4" d="M178.33,408.29c-.53.33-.92.2-1.18-.36.63-.63.98-.38,1.18.36Z"/>
      <path class="cls-4" d="M198.31,407.94c-.25.63-.66.7-1.18.33.22-.75.58-.97,1.18-.33Z"/>
      <path class="cls-4" d="M238.1,408.28c-.52.34-.92.23-1.19-.33.61-.66.97-.43,1.19.33Z"/>
      <path class="cls-4" d="M164.64,176.04c-.34.49-.74.53-1.2.18.31-.69.69-.89,1.2-.18Z"/>
      <path class="cls-4" d="M295.99,287.55c-.34-.46-.3-.86.18-1.2.73.52.45.88-.18,1.2Z"/>
      <path class="cls-4" d="M295.42,291.9c-.34-.47-.26-.87.22-1.2.68.53.44.9-.22,1.2Z"/>
      <path class="cls-4" d="M295.62,261.89c-.5-.33-.53-.74-.19-1.2.68.3.89.68.19,1.2Z"/>
      <path class="cls-4" d="M259.65,421.18c-.7-.14-.94-.59-.87-1.26.81.06,1,.55.87,1.26Z"/>
      <path class="cls-4" d="M294.7,294.58c-.28-.51-.25-.93.36-1.17.67.63.5,1-.36,1.17Z"/>
      <path class="cls-4" d="M288.79,314.16c-.34-.67-.1-1.13.52-1.46.41.69.33,1.22-.52,1.46Z"/>
      <path class="cls-4" d="M295.08,259.18c-.58-.25-.65-.65-.36-1.17.82.17,1.03.54.36,1.17Z"/>
      <path class="cls-4" d="M236.99,184.51c-.68.32-1.12.01-1.43-.58.71-.38,1.21-.24,1.43.58Z"/>
      <path class="cls-4" d="M154.58,178.53c-.28.65-.73.91-1.42.63.18-.86.66-1.06,1.42-.63Z"/>
      <path class="cls-4" d="M221.79,178.48c-.5.32-.9.21-1.19-.31.6-.68.96-.46,1.19.31Z"/>
      <path class="cls-4" d="M158.11,177.6c-.3.51-.69.6-1.19.29.25-.68.6-.96,1.19-.29Z"/>
      <path class="cls-4" d="M160.54,176.88c-.31.68-.79.84-1.44.5.26-.82.76-.93,1.44-.5Z"/>
      <path class="cls-4" d="M293.99,254.29c-.52-.33-.58-.73-.2-1.2.72.29.89.68.2,1.2Z"/>
      <path class="cls-4" d="M226.66,180.19c-.55.26-.94.11-1.16-.46.69-.61,1.03-.34,1.16.46Z"/>
      <path class="cls-4" d="M248.83,191.29c-.39.1-.61-.05-.65-.45.4-.12.61.04.65.45Z"/>
      <path class="cls-4" d="M424.36,244.71c-18.83,0-37.67.02-56.5,0-12.4-.02-24.81-.12-37.21-.18-.45,0-.91.01-1.35-.06-1.33-.21-2.15-.93-2.16-2.35,0-2.89.2-5.78.09-8.68-.06-1.61.86-2.36,2.64-2.42,1.72-.06,3.44-.02,5.15-.02,40.84-.03,81.67-.04,122.51-.09,20.28-.02,40.56-.11,60.85-.16,2.64,0,3.28.59,3.29,3.11.01,2.44,0,4.89-.01,7.33-.02,2.81-.61,3.39-3.31,3.39-10.77.02-21.55.05-32.32.06-20.55,0-41.11,0-61.66,0,0,.02,0,.04,0,.06Z"/>
      <path class="cls-4" d="M372.46,504.41c17.2,0,34.4.01,51.61,0,8.96-.01,17.93-.08,26.89-.12.72,0,1.45-.01,2.17.04,1.27.09,2.04.73,2.02,2.07-.06,3.08-.06,6.16-.27,9.22-.14,2.07-.62,2.35-2.84,2.35-18.74.06-37.48.15-56.22.16-30.78.02-61.57,0-92.35-.03-2.98,0-5.97.14-8.95-.33-.69-.11-1.43.13-2.14.2-1.81.16-2.87-.56-2.9-2.35-.06-3.07.02-6.16.16-9.23.06-1.39.75-1.87,2.44-1.91,2.08-.05,4.16,0,6.24,0,24.72,0,49.43,0,74.15,0,0-.03,0-.05,0-.08Z"/>
      <path class="cls-4" d="M415.39,274.44c-10.23,0-20.45-.03-30.68.01-6.88.03-13.76.14-20.63.23-2.24.03-2.87-.4-2.97-2.48-.15-3.16.13-6.33-.19-9.49-.13-1.29.72-1.88,2.39-1.89,1.81-.01,3.62.1,5.43.1,32.22,0,64.45-.02,96.67-.04.63,0,1.27-.05,1.9.02,1.79.21,2.37.83,2.34,2.65-.05,2.71-.11,5.42.04,8.14.13,2.44-.54,2.91-2.98,2.9-15.84-.07-31.68-.12-47.52-.15-1.26,0-2.53.15-3.79.23,0-.07,0-.14,0-.21Z"/>
      <path class="cls-4" d="M374.65,291.07c14.3,0,28.6,0,42.91,0,.81,0,1.64-.04,2.43.12,1.17.23,1.95.93,1.96,2.23.03,2.98.05,5.97.08,8.95.01,1.32-.77,1.98-1.95,2.23-.52.11-1.08.07-1.62.07-27.43-.06-54.85-.14-82.28-.19-2.08,0-4.16.11-6.24.09-2.51-.02-3.19-.79-3.15-3.27.04-2.44.06-4.89.04-7.33-.02-2.32.45-2.96,2.75-3.02,4.43-.11,8.87-.12,13.3-.13,10.59-.02,21.18,0,31.77,0,0,.08,0,.17,0,.25Z"/>
      <path class="cls-4" d="M478.4,290.87c10.85,0,21.7,0,32.56,0,2.62,0,5.24.03,7.86.09,2.15.05,2.75.6,2.84,2.72.11,2.62.17,5.24.17,7.86,0,2.32-.78,3.02-3.14,3.02-26.59,0-53.18,0-79.77,0-2.96,0-3.43-.48-3.4-3.49.02-2.35.03-4.7.08-7.05.05-2.28.71-2.93,2.92-2.93,13.29,0,26.59,0,39.88,0v-.23Z"/>
      <path class="cls-4" d="M480.88,488.01c-12.85,0-25.69,0-38.54,0-1.77,0-2.49-.57-2.57-2.38-.12-2.71-.14-5.43-.1-8.14.03-2.18.76-2.82,3.02-2.83,5.43-.03,10.86-.02,16.29-.03,19.27-.03,38.54-.05,57.82-.08.63,0,1.26-.08,1.9-.09,2.11-.02,3,.74,3.08,2.86.11,2.71.12,5.43.12,8.14,0,2.08-.68,2.8-2.74,2.84-2.26.04-4.52-.06-6.79-.07-10.5,0-20.99,0-31.49,0,0-.08,0-.15,0-.23Z"/>
      <path class="cls-4" d="M501.91,274.68c-5.6,0-11.2,0-16.81,0-1.66,0-2.33-.65-2.39-2.54-.06-1.8.08-3.61.11-5.42.02-1.08-.01-2.17,0-3.25,0-1.82.54-2.47,2.32-2.57,1.17-.07,2.35.09,3.52.09,9.94-.04,19.88-.1,29.82-.15,2.9-.02,3.38.53,3.32,3.49-.05,2.53.06,5.06,0,7.59-.05,2.05-1.05,2.87-3.09,2.86-5.6-.02-11.2,0-16.79,0,0-.03,0-.06,0-.09Z"/>
      <path class="cls-4" d="M337.27,274.89c-2.43,0-4.87,0-7.3,0-1.99,0-2.64-.48-2.7-2.49-.09-3.06,0-6.13.01-9.2,0-1.35.79-1.98,2.01-2.09.98-.09,1.98-.02,2.97-.03,4.15-.04,8.3-.1,12.44-.14,2.6-.03,3.07.49,3.05,3.15-.01,2.43.05,4.87.06,7.3,0,2.83-.45,3.31-3.23,3.34-2.44.03-4.87,0-7.31,0,0,.05,0,.1,0,.14Z"/>
      <path class="cls-4" d="M478.91,504.28c2.26,0,4.51.05,6.77-.01,2.09-.06,2.97.48,3.07,2.46.15,3.06.16,6.14.12,9.2-.02,1.39-1.09,2.14-2.89,2.16-2.98.04-5.96.08-8.94.02-1.9-.04-3.78-.09-5.68,0-1.99.1-2.88-.68-2.94-2.66-.09-2.8-.05-5.6.03-8.4.06-2.07.72-2.65,2.88-2.67,2.53-.03,5.06,0,7.59,0,0-.03,0-.06,0-.1Z"/>
      <path class="cls-4" d="M511.66,504.1c2.26.04,4.51.22,6.77.05,2.62-.19,3.44.7,3.45,3.26.01,2.62.11,5.24.09,7.86-.02,2.02-.92,2.88-2.81,2.76-4.6-.3-9.2-.31-13.81-.28-2.49.01-2.91-.29-2.96-2.72-.05-2.8.02-5.6.13-8.4.09-2.13.51-2.49,2.62-2.51,2.17-.02,4.34,0,6.51,0Z"/>
      <path class="cls-2" d="M490.35,372.59c-29.78,0-59.57,0-89.35,0-1.36,0-2.72.06-4.07.05-2.03-.01-3.15-.85-3.28-2.79-.13-1.89-.08-3.81.14-5.68.2-1.73,1.2-2.53,2.68-2.45,7.96.41,15.92.19,23.88.19,52.87.04,105.73.02,158.6.02,1.63,0,3.26-.01,4.89,0,2,.02,2.66.58,2.78,2.49.13,2.07-.28,4.14-.16,6.23.08,1.27-.85,1.9-2.15,1.89-1.9-.01-3.8,0-5.7,0-29.42,0-58.84,0-88.26,0v.05Z"/>
      <path class="cls-2" d="M490.29,397.09c-30.95,0-61.9,0-92.85,0-2.85,0-3.89-1.09-3.71-4,.06-.89.22-1.73.02-2.67-.5-2.33.35-3.33,2.82-3.44,1.99-.09,3.98-.06,5.97-.06,32.76-.02,65.52.14,98.28-.11,19.82-.15,39.63-.18,59.45-.13,5.24.01,10.49.27,15.74.15,2.62-.06,5.22,0,7.83.14,1.92.1,2.66.72,2.73,2.59.07,1.81-.03,3.62-.04,5.43,0,1.35-.76,2-2.02,2.05-1.63.07-3.26.07-4.89.07-29.77,0-59.55,0-89.32,0v-.02Z"/>
      <path class="cls-2" d="M467.43,411.5c5.69,0,11.38,0,17.06,0,2.92,0,3.45.61,3.31,3.54-.05,1.08.03,2.17-.08,3.24-.14,1.48-1.36,2.72-2.69,2.46-3.14-.61-6.27-.04-9.41-.16-8.57-.33-17.15-.23-25.73-.29-2.65-.02-3.14-.48-3.25-3.12-.04-.81-.13-1.62-.15-2.43-.06-2.14.85-3.18,3.05-3.19,5.96-.05,11.92-.02,17.88-.02v-.04Z"/>
      <path class="cls-4" d="M189.67,209.67c9.2-.15,19.56,1.06,29.83,3.27,5.04,1.09,9.89,2.85,14.71,4.57,3.6,1.28,6.79,3.66,10.27,5.32,3.53,1.68,6.38,4.35,9.67,6.36.31.19.64.36.9.6,6.11,5.64,11.87,11.58,16.05,18.86,2.66,4.63,4.49,9.64,6.28,14.61,1.23,3.43,2.02,7.1,1.94,10.87-.08,3.8.08,7.61,0,11.41-.07,3.25-.8,6.42-1.5,9.59-.82,3.72-2.03,7.27-3.85,10.59-1.47,2.67-2.37,5.6-4,8.22-2.1,3.38-4.48,6.53-6.93,9.64-3.72,4.72-8.37,8.47-13.16,11.98-5.07,3.72-10.49,6.94-16.29,9.46-2.15.93-4.29,1.88-6.47,2.73-1.91.74-3.91,1.23-5.87,1.82-6.91,2.06-13.95,3.49-21.15,4.3-6.42.72-12.84.7-19.22.3-6.9-.43-13.74-1.62-20.52-3.23-3.42-.81-6.75-1.93-10.16-2.78-3.01-.75-5.79-2.43-8.7-3.64-4.36-1.8-8.2-4.5-12.13-7.04-2.28-1.47-4.39-3.16-6.38-5-3.05-2.82-5.75-6.02-8.97-8.67-.81-.67-.96-1.72-1.65-2.46-4.98-5.38-8.48-11.71-10.89-18.54-1.45-4.11-2.37-8.44-2.74-12.89-.27-3.34-.44-6.66-.44-10,0-4.7.63-9.32,1.63-13.93,1.26-5.78,3.37-11.22,5.97-16.49,2.49-5.04,5.69-9.67,9.64-13.6,3.12-3.11,6.27-6.25,9.8-8.93,1.36-1.03,2.99-1.6,4.45-2.48,5.26-3.15,10.8-5.74,16.62-7.78,5.3-1.86,10.75-3.11,16.15-4.5,3.27-.84,6.78-.95,10.13-1.55,5.21-.93,10.42-.91,16.97-.99ZM146.01,299.36c12.92.42,25.59-11.24,25.22-25.69-.37-14.45-10.77-24.66-23.93-25.24-15.21-.67-26.92,12.02-26.93,24.97,0,15,11.65,25.67,25.63,25.96ZM230.67,299.41c13.9.03,25.37-10.77,25.53-25.33.15-13.91-11.4-25.13-24.62-25.54-14.68-.45-26.35,11.54-26.32,25.13.02,14.89,11.07,25.54,25.42,25.73Z"/>
      <!-- <path class="cls-2" d="M262.95,348.24c-.02.07-.03.14-.05.21.03-.06.06-.11.09-.17,0,0-.04-.04-.04-.04Z"/> -->
      <!-- <path class="cls-2" d="M183.29,134.44c-.33-.08-.59-.06-.64-.16-1.44-2.5-1.67-5.29-.62-7.79.86-2.04,2.94-3.38,5.11-4.15,3.11-1.1,6.6-.5,8.55,3.12q.25.46,0,2.01c-1.27-.53-2.43-1.19-3.27-2.27-.77-1-1.82-1.42-2.98-1.72-1.5-.38-2.73-.35-3.73,1.2-.71,1.11-1.86,1.86-2.33,3.25-.42,1.23-.82,2.21,0,3.5.53.83.45,2.03-.08,3.02Z"/> -->
      <path class="cls-2" d="M190.44,137.62c-.7,1.22-1.96,1.04-2.99.77-1.16-.31-2.5-.58-3.04-1.94-.08-.21-.04-.55.08-.75.22-.38.62-.27.96-.16.16.05.36.17.42.31.7,1.57,1.9,1.63,3.34,1.22.38-.11.9-.13,1.24.55Z"/>
      <path class="cls-3" d="M146.01,299.36c-13.99-.29-25.64-10.96-25.63-25.96,0-12.95,11.72-25.64,26.93-24.97,13.16.58,23.56,10.79,23.93,25.24.37,14.45-12.3,26.11-25.22,25.69ZM145.99,288.16c8.1.4,14.77-7.44,14.21-14.78-.56-7.28-6.22-13.95-14.84-13.63-7.93.29-13.96,6.85-13.89,14.38.07,6.73,5.99,14.63,14.52,14.04Z"/>
      <path class="cls-3" d="M230.67,299.41c-14.35-.2-25.39-10.84-25.42-25.73-.02-13.59,11.64-25.58,26.32-25.13,13.22.41,24.77,11.63,24.62,25.54-.16,14.55-11.62,25.36-25.53,25.33ZM245.53,274.92c.06-8.54-4.16-13.35-10.63-14.79-6.19-1.38-12.03-.08-16,5.72-2.38,3.47-3.27,7.27-2.4,11.32,1.44,6.72,7.42,11.23,14.37,11.29,2.52.02,5.11-.61,7.27-1.86,4.91-2.84,7.28-7.34,7.4-11.69Z"/>
      <path class="cls-2" d="M145.99,288.16c-8.53.6-14.45-7.31-14.52-14.04-.07-7.53,5.96-14.08,13.89-14.38,8.62-.32,14.28,6.35,14.84,13.63.56,7.34-6.11,15.18-14.21,14.78Z"/>
      <path class="cls-2" d="M245.53,274.92c-.12,4.35-2.49,8.85-7.4,11.69-2.15,1.25-4.74,1.88-7.27,1.86-6.95-.07-12.92-4.57-14.37-11.29-.87-4.05.02-7.85,2.4-11.32,3.97-5.8,9.82-7.1,16-5.72,6.47,1.44,10.7,6.25,10.63,14.79Z"/>
    </g>
  </g>
</svg>