<svg width="17" height="17" viewBox="0 0 17 17" fill="white" xmlns="http://www.w3.org/2000/svg">
<path d="M6.35 2.89999C6.13783 2.89999 5.93434 2.98428 5.78431 3.13431C5.63428 3.28434 5.55 3.48782 5.55 3.69999C5.55 3.91217 5.63428 4.11565 5.78431 4.26568C5.93434 4.41571 6.13783 4.49999 6.35 4.49999H11.15C11.3622 4.49999 11.5657 4.41571 11.7157 4.26568C11.8657 4.11565 11.95 3.91217 11.95 3.69999C11.95 3.48782 11.8657 3.28434 11.7157 3.13431C11.5657 2.98428 11.3622 2.89999 11.15 2.89999H6.35ZM3.95 6.09999C3.95 5.88782 4.03428 5.68434 4.18431 5.53431C4.33434 5.38428 4.53783 5.29999 4.75 5.29999H12.75C12.9622 5.29999 13.1657 5.38428 13.3157 5.53431C13.4657 5.68434 13.55 5.88782 13.55 6.09999C13.55 6.31217 13.4657 6.51565 13.3157 6.66568C13.1657 6.81571 12.9622 6.89999 12.75 6.89999H4.75C4.53783 6.89999 4.33434 6.81571 4.18431 6.66568C4.03428 6.51565 3.95 6.31217 3.95 6.09999ZM2.35 9.29999C2.35 8.87565 2.51857 8.46868 2.81863 8.16862C3.11869 7.86857 3.52565 7.69999 3.95 7.69999H13.55C13.9743 7.69999 14.3813 7.86857 14.6814 8.16862C14.9814 8.46868 15.15 8.87565 15.15 9.29999V12.5C15.15 12.9243 14.9814 13.3313 14.6814 13.6314C14.3813 13.9314 13.9743 14.1 13.55 14.1H3.95C3.52565 14.1 3.11869 13.9314 2.81863 13.6314C2.51857 13.3313 2.35 12.9243 2.35 12.5V9.29999Z" fill="#fff"/>
</svg>
